<svg width="20" height="18" viewBox="0 0 20 18" fill="none" xmlns="http://www.w3.org/2000/svg">
<path d="M7.49996 16.5V10.3333C7.49996 9.86662 7.49996 9.63327 7.59079 9.45501C7.67068 9.29821 7.79817 9.17072 7.95497 9.09083C8.13323 9 8.36659 9 8.8333 9H11.1666C11.6333 9 11.8667 9 12.045 9.09083C12.2018 9.17072 12.3292 9.29821 12.4091 9.45501C12.5 9.63327 12.5 9.86662 12.5 10.3333V16.5M1.66663 6.91667L9.19996 1.26667C9.48684 1.0515 9.63029 0.943924 9.78782 0.902454C9.92688 0.865849 10.073 0.865849 10.2121 0.902454C10.3696 0.943924 10.5131 1.05151 10.8 1.26667L18.3333 6.91667M3.3333 5.66667V13.8333C3.3333 14.7668 3.3333 15.2335 3.51495 15.59C3.67474 15.9036 3.92971 16.1586 4.24331 16.3183C4.59983 16.5 5.06654 16.5 5.99996 16.5H14C14.9334 16.5 15.4001 16.5 15.7566 16.3183C16.0702 16.1586 16.3252 15.9036 16.485 15.59C16.6666 15.2335 16.6666 14.7668 16.6666 13.8333V5.66667L11.6 1.86667C11.0262 1.43634 10.7393 1.22118 10.4242 1.13824C10.1461 1.06503 9.8538 1.06503 9.57568 1.13824C9.26061 1.22118 8.97373 1.43634 8.39996 1.86667L3.3333 5.66667Z" stroke="#344054" stroke-width="1.66667" stroke-linecap="round" stroke-linejoin="round"/>
</svg>
