<svg width="20" height="20" viewBox="0 0 20 20" fill="none" xmlns="http://www.w3.org/2000/svg">
<path d="M9.99984 18.3334C14.6022 18.3334 18.3332 14.6025 18.3332 10.0001C18.3332 5.39771 14.6022 1.66675 9.99984 1.66675C5.39746 1.66675 1.6665 5.39771 1.6665 10.0001C1.6665 14.6025 5.39746 18.3334 9.99984 18.3334Z" stroke="#344054" stroke-width="1.66667" stroke-linecap="round" stroke-linejoin="round"/>
<path d="M11.5276 6.08342C11.5276 5.85006 11.5276 5.73338 11.4822 5.64425C11.4423 5.56585 11.3785 5.50211 11.3001 5.46216C11.211 5.41675 11.0943 5.41675 10.8609 5.41675H9.13873C8.90537 5.41675 8.78869 5.41675 8.69956 5.46216C8.62116 5.50211 8.55742 5.56585 8.51747 5.64425C8.47206 5.73338 8.47206 5.85006 8.47206 6.08342V7.80564C8.47206 8.03899 8.47206 8.15567 8.42665 8.2448C8.3867 8.3232 8.32296 8.38694 8.24456 8.42689C8.15543 8.4723 8.03875 8.4723 7.80539 8.4723H6.08317C5.84982 8.4723 5.73314 8.4723 5.64401 8.51772C5.56561 8.55766 5.50187 8.62141 5.46192 8.69981C5.4165 8.78894 5.4165 8.90562 5.4165 9.13897V10.8612C5.4165 11.0945 5.4165 11.2112 5.46192 11.3004C5.50187 11.3788 5.56561 11.4425 5.64401 11.4824C5.73314 11.5279 5.84982 11.5279 6.08317 11.5279H7.80539C8.03875 11.5279 8.15543 11.5279 8.24456 11.5733C8.32296 11.6132 8.3867 11.677 8.42665 11.7554C8.47206 11.8445 8.47206 11.9612 8.47206 12.1945V13.9167C8.47206 14.1501 8.47206 14.2668 8.51747 14.3559C8.55742 14.4343 8.62116 14.4981 8.69956 14.538C8.78869 14.5834 8.90537 14.5834 9.13873 14.5834H10.8609C11.0943 14.5834 11.211 14.5834 11.3001 14.538C11.3785 14.4981 11.4423 14.4343 11.4822 14.3559C11.5276 14.2668 11.5276 14.1501 11.5276 13.9167V12.1945C11.5276 11.9612 11.5276 11.8445 11.573 11.7554C11.613 11.677 11.6767 11.6132 11.7551 11.5733C11.8442 11.5279 11.9609 11.5279 12.1943 11.5279H13.9165C14.1499 11.5279 14.2665 11.5279 14.3557 11.4824C14.4341 11.4425 14.4978 11.3788 14.5378 11.3004C14.5832 11.2112 14.5832 11.0945 14.5832 10.8612V9.13897C14.5832 8.90562 14.5832 8.78894 14.5378 8.69981C14.4978 8.62141 14.4341 8.55767 14.3557 8.51772C14.2665 8.4723 14.1499 8.4723 13.9165 8.4723H12.1943C11.9609 8.4723 11.8442 8.4723 11.7551 8.42689C11.6767 8.38694 11.613 8.3232 11.573 8.2448C11.5276 8.15567 11.5276 8.03899 11.5276 7.80564V6.08342Z" stroke="#344054" stroke-width="1.66667" stroke-linecap="round" stroke-linejoin="round"/>
</svg>
