<svg width="16" height="18" viewBox="0 0 16 18" fill="none" xmlns="http://www.w3.org/2000/svg">
<path d="M14.6666 16.5C14.6666 15.337 14.6666 14.7555 14.5231 14.2824C14.1999 13.217 13.3663 12.3834 12.3009 12.0602C11.8278 11.9167 11.2463 11.9167 10.0833 11.9167H5.91665C4.75368 11.9167 4.17219 11.9167 3.69903 12.0602C2.63369 12.3834 1.80001 13.217 1.47685 14.2824C1.33331 14.7555 1.33331 15.337 1.33331 16.5M11.75 5.25C11.75 7.32107 10.071 9 7.99998 9C5.92891 9 4.24998 7.32107 4.24998 5.25C4.24998 3.17893 5.92891 1.5 7.99998 1.5C10.071 1.5 11.75 3.17893 11.75 5.25Z" stroke="#344054" stroke-width="1.66667" stroke-linecap="round" stroke-linejoin="round"/>
</svg>
