<svg width="18" height="20" viewBox="0 0 18 20" fill="none" xmlns="http://www.w3.org/2000/svg">
<path d="M1.5 18.3333H9M8.16667 5.20999C8.69937 5.07288 9.25783 4.99996 9.83333 4.99996C13.5152 4.99996 16.5 7.98473 16.5 11.6666C16.5 14.4644 14.7765 16.8597 12.3333 17.8487M3.58333 10.8333H6.91667C7.30388 10.8333 7.49749 10.8333 7.65848 10.8653C8.31964 10.9968 8.83646 11.5137 8.96798 12.1748C9 12.3358 9 12.5294 9 12.9166C9 13.3038 9 13.4974 8.96798 13.6584C8.83646 14.3196 8.31964 14.8364 7.65848 14.9679C7.49749 15 7.30388 15 6.91667 15H3.58333C3.19612 15 3.00251 15 2.84152 14.9679C2.18037 14.8364 1.66354 14.3196 1.53202 13.6584C1.5 13.4974 1.5 13.3038 1.5 12.9166C1.5 12.5294 1.5 12.3358 1.53202 12.1748C1.66354 11.5137 2.18037 10.9968 2.84152 10.8653C3.00251 10.8333 3.19612 10.8333 3.58333 10.8333ZM2.33333 4.58329V10.8333H8.16667V4.58329C8.16667 2.97246 6.86083 1.66663 5.25 1.66663C3.63917 1.66663 2.33333 2.97246 2.33333 4.58329Z" stroke="#344054" stroke-width="1.66667" stroke-linecap="round" stroke-linejoin="round"/>
</svg>
