<svg width="18" height="20" viewBox="0 0 18 20" fill="none" xmlns="http://www.w3.org/2000/svg">
<path d="M6.79515 17.4993C7.38276 18.018 8.15463 18.3327 9 18.3327C9.84537 18.3327 10.6172 18.018 11.2049 17.4993M14 6.66602C14 5.33993 13.4732 4.06816 12.5355 3.13048C11.5979 2.1928 10.3261 1.66602 9 1.66602C7.67392 1.66602 6.40215 2.1928 5.46447 3.13048C4.52678 4.06816 4 5.33993 4 6.66602C4 9.24117 3.35039 11.0043 2.62472 12.1705C2.0126 13.1542 1.70655 13.6461 1.71777 13.7833C1.7302 13.9352 1.76238 13.9932 1.88481 14.084C1.99538 14.166 2.49382 14.166 3.49071 14.166H14.5093C15.5062 14.166 16.0046 14.166 16.1152 14.084C16.2376 13.9932 16.2698 13.9352 16.2822 13.7833C16.2935 13.6461 15.9874 13.1542 15.3753 12.1705C14.6496 11.0043 14 9.24117 14 6.66602Z" stroke="#344054" stroke-width="1.66667" stroke-linecap="round" stroke-linejoin="round"/>
</svg>
