<svg width="19" height="20" viewBox="0 0 19 20" fill="none" xmlns="http://www.w3.org/2000/svg">
<path d="M14.5 1.66602L17.8333 4.99935M1.16666 18.3327L2.23033 14.4326C2.29973 14.1781 2.33442 14.0509 2.38769 13.9323C2.43499 13.8269 2.4931 13.7268 2.56109 13.6334C2.63768 13.5283 2.73092 13.4351 2.91742 13.2486L11.5286 4.63742C11.6936 4.47241 11.7761 4.38991 11.8712 4.359C11.9549 4.33181 12.0451 4.33181 12.1288 4.359C12.2239 4.38991 12.3064 4.47241 12.4714 4.63742L14.8619 7.02794C15.0269 7.19295 15.1094 7.27546 15.1403 7.37059C15.1675 7.45428 15.1675 7.54442 15.1403 7.62811C15.1094 7.72324 15.0269 7.80575 14.8619 7.97075L6.25075 16.5819C6.06426 16.7684 5.97101 16.8617 5.8659 16.9383C5.77257 17.0062 5.67243 17.0644 5.56709 17.1117C5.44845 17.1649 5.32123 17.1996 5.06678 17.269L1.16666 18.3327Z" stroke="#667085" stroke-width="1.66667" stroke-linecap="round" stroke-linejoin="round"/>
</svg>
