<svg width="159" height="22" viewBox="0 0 159 22" fill="none" xmlns="http://www.w3.org/2000/svg">
<path fill-rule="evenodd" clip-rule="evenodd" d="M147.075 0.682496C144.014 1.0372 141.885 2.0521 140.079 3.8571C136.814 7.11926 136.239 12.2732 138.648 16.3968C139.256 17.4375 140.94 19.1413 141.987 19.7301C143.741 20.7166 145.495 21.2265 147.552 21.3174C153.216 21.5679 157.58 18.5738 158.841 13.5396C159.124 12.4078 158.988 9.6642 158.682 8.46027C157.614 4.25407 154.112 1.37375 149.46 0.841226C148.565 0.738709 147.737 0.605842 147.075 0.682496ZM0 5.92059H15.105V21H16.059C17.153 20.9308 17.7285 20.7471 18.444 20.2063C19.08 19.7256 19.4775 19.1746 19.875 18.3015C20.193 17.2698 20.2214 17.8245 20.193 11V7.66662C20.161 7.34694 20.193 4.69975 20.193 4.49202C20.193 2.62241 18.5094 0.999956 16.695 0.999956C16.2753 0.933585 12.9058 1.00037 7.95 0.999956H0V5.92059ZM25.122 0.999956C25.122 7.66662 25.122 14.3333 25.122 21H30.051V0.999956C28.408 0.999956 26.765 0.999956 25.122 0.999956ZM34.98 21H39.909V13.8571H49.131V9.88885H39.909V5.12694H50.085V0.999956H34.98V21ZM53.265 0.999966C53.265 0.999966 53.265 5.52522 53.265 11V21H68.211V18.9365V16.873H58.353V0.999956H55.968C54.6344 0.999956 53.265 0.999966 53.265 0.999966ZM71.232 0.999956C71.232 0.999956 71.232 5.52522 71.232 11V21H78.864H86.655V17.0317H76.32V12.746H85.383V8.93647C82.309 8.93647 79.235 8.93651 76.161 8.93645V5.12694H86.496V0.999956H71.232ZM89.358 0.999956C89.359 1.04368 90.1944 2.12412 91.107 3.38091C95.1729 8.98049 96.354 10.7373 96.354 10.8412C96.354 10.9417 92.8582 15.7963 92.697 15.9206C92.5809 16.0101 89.0174 20.8517 88.9605 21H91.902H94.764L96.99 17.8254C98.2192 16.0272 99.3192 14.4746 99.375 14.492C99.4307 14.5094 100.37 16.0476 101.601 17.8254L103.827 21H106.689C108.386 21.0034 109.551 21.0582 109.551 21C109.551 20.9464 107.894 18.5218 105.894 15.7619C103.894 13.0019 102.236 10.7396 102.237 10.6825C102.238 10.6254 103.85 8.51561 105.735 5.92059C107.62 3.32557 109.074 1.04805 109.074 0.999956C109.074 0.95197 108.001 0.984688 106.53 0.999956H103.827L101.76 4.01583C100.603 5.67251 99.6008 7.0317 99.534 7.0317C99.4671 7.0317 98.3285 5.67251 97.149 4.01583L95.082 0.999956H92.22C90.6638 0.984792 89.3569 0.956228 89.358 0.999956ZM111.777 11V21H114.162H116.388V15.6031C116.388 12.6611 116.504 10.3647 116.547 10.365C116.59 10.3653 117.802 12.2803 119.25 14.6508L121.794 18.9365H123.066H124.179L126.882 14.492C128.339 12.0384 129.541 10.0476 129.585 10.0476C129.629 10.0476 129.585 12.4167 129.585 15.4444V21H131.97H134.355V11L134.196 0.999956H132.288H130.221L129.903 1.47615C129.746 1.72377 128.206 4.31219 126.405 7.34916C124.604 10.3861 123.108 12.9176 123.066 12.9047C123.024 12.8918 121.372 10.1292 119.409 6.87297L115.911 0.999956H113.844H111.777V11ZM149.778 5.12694C151.71 5.62966 153.167 7.28086 153.753 9.25393C154.587 12.0616 153.294 15.2211 150.891 16.3968C149.65 17.0043 148.081 17.3094 146.757 17.0317C144.656 16.5908 142.854 14.7365 142.305 12.5873C142.103 11.7969 142.102 10.2722 142.305 9.41266C142.763 7.47034 144.203 5.93962 146.121 5.28567C146.817 5.04823 147.112 4.97008 148.029 4.96821C148.671 4.96696 149.43 5.03626 149.778 5.12694ZM0 21H4.929V16.0793H0V21Z" fill="#92211C"/>
</svg>
